<?xml version="1.0" standalone="no"?>
<!DOCTYPE svg PUBLIC "-//W3C//DTD SVG 20010904//EN"
 "http://www.w3.org/TR/2001/REC-SVG-20010904/DTD/svg10.dtd">
<svg version="1.0" xmlns="http://www.w3.org/2000/svg"
 width="800.000000pt" height="150.000000pt" viewBox="0 0 800.000000 150.000000"
 preserveAspectRatio="xMidYMid meet">

<g transform="translate(0.000000,150.000000) scale(0.100000,-0.100000)"
fill="#000000" stroke="none">
<path d="M2116 1157 c-21 -15 -25 -62 -7 -80 16 -16 115 -14 135 2 23 19 20
57 -6 75 -27 19 -98 21 -122 3z"/>
<path d="M4876 1157 c-21 -15 -25 -62 -7 -80 16 -16 115 -14 135 2 23 19 20
57 -6 75 -27 19 -98 21 -122 3z"/>
<path d="M1628 1123 l-48 -4 0 -265 0 -264 68 0 69 0 -5 153 -5 153 32 27 c44
37 94 37 118 0 15 -22 19 -55 22 -180 l3 -153 65 0 65 0 -4 183 c-2 151 -6
188 -21 214 -54 101 -201 77 -273 -43 -8 -14 -9 -6 -3 36 4 30 8 76 8 103 1
43 -1 47 -21 45 -13 -1 -44 -3 -70 -5z"/>
<path d="M145 855 l0 -265 68 0 67 0 0 105 0 105 125 0 125 0 0 45 0 45 -125
0 -125 0 0 65 0 65 135 0 135 0 0 50 0 50 -202 0 -203 0 0 -265z"/>
<path d="M3385 855 l0 -265 68 0 67 0 0 105 0 105 125 0 125 0 0 45 0 45 -125
0 -125 0 0 65 0 65 135 0 135 0 0 50 0 50 -202 0 -203 0 0 -265z"/>
<path d="M728 1040 c-15 -4 -43 -18 -62 -29 -47 -29 -94 -129 -68 -144 4 -3
32 -8 63 -11 l55 -7 10 38 c24 97 133 76 151 -30 l5 -34 -93 -5 c-143 -8 -209
-49 -209 -131 0 -76 97 -126 190 -98 39 12 100 70 100 96 0 8 3 15 8 15 4 0 5
-25 4 -55 l-4 -55 66 0 66 0 0 151 c0 174 -10 218 -56 259 -52 45 -151 63
-226 40z m152 -278 c0 -37 -57 -82 -105 -82 -45 0 -69 21 -61 53 7 31 42 45
114 46 44 1 52 -2 52 -17z"/>
<path d="M1210 1041 c-53 -17 -90 -42 -105 -71 -32 -63 -10 -132 55 -165 16
-8 65 -19 110 -24 96 -11 119 -26 104 -68 -8 -25 -15 -28 -63 -31 -44 -3 -58
1 -77 19 -13 12 -24 29 -24 37 0 12 -11 14 -62 8 -34 -3 -63 -8 -66 -10 -11
-12 23 -78 53 -105 44 -39 104 -55 182 -48 114 9 179 61 177 142 -2 74 -37 98
-164 114 -93 12 -110 21 -110 60 0 38 17 51 66 51 48 0 91 -28 96 -63 3 -20 7
-22 63 -19 33 2 62 5 64 8 8 8 -19 82 -40 108 -11 14 -35 34 -51 42 -35 18
-170 28 -208 15z"/>
<path d="M2468 1041 c-97 -32 -148 -107 -148 -222 0 -147 65 -224 199 -236
157 -14 255 75 254 231 -1 150 -70 225 -213 232 -36 2 -77 0 -92 -5z m132
-118 c34 -32 47 -91 36 -167 -9 -59 -27 -76 -80 -76 -74 0 -111 65 -99 174 8
74 25 96 73 96 29 0 48 -7 70 -27z"/>
<path d="M3082 1029 c-26 -13 -52 -37 -68 -63 l-25 -41 4 58 4 57 -69 0 -68 0
0 -225 0 -225 70 0 70 0 -6 149 -7 150 31 30 c41 42 94 43 119 4 15 -22 19
-54 21 -180 l4 -153 64 0 64 0 -1 173 c-1 194 -9 230 -59 265 -42 28 -92 28
-148 1z"/>
<path d="M4500 1041 c-53 -17 -90 -42 -105 -71 -32 -63 -10 -132 55 -165 16
-8 65 -19 110 -24 96 -11 119 -26 104 -68 -8 -25 -15 -28 -63 -31 -44 -3 -58
1 -77 19 -13 12 -24 29 -24 37 0 12 -11 14 -62 8 -34 -3 -63 -8 -66 -10 -11
-12 23 -78 53 -105 44 -39 104 -55 182 -48 114 9 179 61 177 142 -2 74 -37 98
-164 114 -93 12 -110 21 -110 60 0 38 17 51 66 51 48 0 91 -28 96 -63 3 -20 7
-22 63 -19 33 2 62 5 64 8 8 8 -19 82 -40 108 -11 14 -35 34 -51 42 -35 18
-170 28 -208 15z"/>
<path d="M5228 1041 c-97 -32 -148 -107 -148 -222 0 -147 65 -224 199 -236
157 -14 255 75 254 231 -1 150 -70 225 -213 232 -36 2 -77 0 -92 -5z m132
-118 c34 -32 47 -91 36 -167 -9 -59 -27 -76 -80 -76 -74 0 -111 65 -99 174 8
74 25 96 73 96 29 0 48 -7 70 -27z"/>
<path d="M5842 1029 c-26 -13 -52 -37 -68 -63 l-25 -41 4 58 4 57 -69 0 -68 0
0 -225 0 -225 70 0 70 0 -6 149 -7 150 31 30 c41 42 94 43 119 4 15 -22 19
-54 21 -180 l4 -153 64 0 64 0 -1 173 c-1 194 -9 230 -59 265 -42 28 -92 28
-148 1z"/>
<path d="M3860 890 c0 -169 11 -237 45 -274 26 -29 79 -41 132 -31 36 7 94 55
119 100 9 16 10 8 6 -38 l-4 -57 66 0 66 0 0 225 0 225 -65 0 -65 0 0 -154 0
-154 -31 -26 c-33 -28 -75 -34 -102 -13 -26 18 -40 119 -34 240 l5 107 -69 0
-69 0 0 -150z"/>
<path d="M2110 809 l0 -219 68 0 67 0 1 219 0 218 -68 0 -68 0 0 -218z"/>
<path d="M4870 809 l0 -219 68 0 67 0 1 219 0 218 -68 0 -68 0 0 -218z"/>
</g>
</svg>
